<!--?xml version="1.0" standalone="no"?-->
              <svg  id="sw-js-blob-svg" viewBox="0 0 100 100" xmlns="http://www.w3.org/2000/svg" version="1.1">
                    <defs> 
                        <linearGradient id="sw-gradient" x1="0" x2="1" y1="1" y2="0">
                            <stop id="stop1" stop-color="rgba(0, 255, 255, 1)" offset="0%"></stop>
                            <stop id="stop2" stop-color="rgba(0, 255, 255, 1)" offset="100%"></stop>
                        </linearGradient>
                    </defs>
                <path fill="url(#sw-gradient)" d="M22.1,-29.5C27,-22.3,28,-13.7,30.3,-4.8C32.5,4.2,35.9,13.4,33.9,22.1C32,30.8,24.5,38.9,15.1,42.9C5.7,46.8,-5.6,46.7,-15.7,43.1C-25.7,39.4,-34.5,32.2,-39.2,23.1C-43.9,14,-44.5,3,-40.9,-5.4C-37.2,-13.8,-29.3,-19.6,-21.8,-26.4C-14.2,-33.1,-7.1,-40.7,0.8,-41.6C8.6,-42.5,17.3,-36.7,22.1,-29.5Z" width="100%" height="100%" transform="translate(50 50)" stroke-width="0" style="transition: all 0.3s ease 0s;"></path>
              </svg>